<svg xmlns="http://www.w3.org/2000/svg" xmlns:xlink="http://www.w3.org/1999/xlink" version="1.1" id="Layer_1" x="0px" y="0px" width="100%" viewBox="0 0 432 432" enable-background="new 0 0 432 432" xml:space="preserve">
<path fill="#f5f2f2" opacity="1.000000" stroke="none" d=" M213.506683,369.477295   C204.790924,360.504028 199.464417,350.537048 200.628860,337.905090   C200.844269,335.568207 200.987640,333.300385 202.045700,331.128662   C204.852371,325.367737 206.737289,319.468231 204.175690,313.044647   C203.944443,312.464752 203.780121,311.574890 204.058731,311.118164   C207.323639,305.766022 206.535492,300.382385 204.807190,294.736267   C204.052643,292.271240 204.540329,289.439758 205.912125,286.982178   C206.570938,285.801910 207.066208,284.488861 206.579636,283.147827   C203.633041,275.026367 202.182465,266.572906 201.332794,257.952576   C196.905273,257.867310 193.658875,260.197784 190.164612,261.525482   C166.867096,270.377747 143.218643,278.312927 120.327278,288.240417   C117.162567,289.612915 114.868538,291.986786 112.039055,293.700378   C106.252586,297.204742 102.220222,295.139557 101.162582,288.037354   C101.446304,287.928864 101.804230,287.652588 102.003281,287.739624   C104.424507,288.798340 106.472252,292.352905 109.453682,289.965820   C113.777344,286.504059 117.204842,282.205475 117.700150,276.281952   C118.739159,263.856354 114.535461,252.727890 109.112411,241.938705   C102.725815,229.232574 93.709618,218.249786 85.741127,206.577988   C78.858452,196.496597 72.707077,185.894363 70.291344,173.833450   C68.522438,165.001877 68.655106,155.959030 73.007889,147.521133   C74.642357,144.352707 76.598175,143.072891 80.201920,144.611572   C83.296471,145.932846 86.167145,147.533508 88.890205,149.466187   C90.854088,150.860031 91.821594,152.794403 91.271706,155.088120   C86.426369,175.299637 96.040710,191.670166 105.417763,208.019180   C111.447548,218.532196 118.324440,228.561157 122.710884,239.970718   C127.722473,253.006271 127.217102,265.948029 122.398605,278.881317   C121.835197,280.393524 120.920692,281.815063 121.084160,283.585754   C139.312668,276.739105 157.453323,269.849426 175.655029,263.124969   C183.294189,260.302765 191.054855,257.815765 198.203568,253.814713   C199.779526,252.932678 201.264832,252.347061 201.761002,250.099030   C203.304764,243.104767 203.448456,243.148254 210.540207,245.529251   C211.129333,245.727066 211.814011,245.640274 213.159485,245.184433   C198.097519,231.584915 196.197342,210.621262 184.073669,195.365875   C185.386505,201.550735 190.363556,206.768799 189.676636,214.463486   C179.515366,208.388687 170.353333,202.563095 163.930923,194.115967   C156.433167,184.254440 146.983704,177.552551 135.789902,173.481873   C124.850388,169.503647 115.911629,162.854950 107.577728,155.232040   C102.428505,150.522125 96.687286,147.132828 90.358589,144.456345   C84.777245,142.095901 79.711411,139.004974 76.486183,133.583298   C74.640305,130.480347 74.108177,127.491539 76.409302,124.283157   C77.351273,122.969810 77.764595,121.262260 78.343620,119.706207   C80.967224,112.655563 84.310493,111.015823 91.461411,113.634651   C96.808342,115.592827 101.851097,118.163879 105.719040,122.532158   C115.097427,133.123703 127.045235,139.965515 139.740540,145.625320   C149.061157,149.780624 157.649292,154.666626 165.302521,161.760803   C172.697556,168.615662 182.945755,170.719070 192.475830,173.638580   C205.183472,177.531540 217.496323,181.949158 225.138580,194.035446   C227.365036,197.556595 229.861908,200.875427 231.593155,204.936600   C231.136749,202.554581 230.995209,200.053665 230.150955,197.818146   C228.849579,194.372162 230.410065,192.952972 233.401215,192.826874   C246.646530,192.268494 258.787079,195.569275 267.555725,205.920242   C274.261292,213.835861 278.227051,223.421265 276.170044,234.149246   C274.545593,242.621216 271.811218,250.851883 266.193237,257.725189   C260.946533,264.144257 257.085419,271.529114 254.988266,279.303833   C251.269913,293.089020 253.015457,306.529327 260.826355,318.933716   C269.632050,332.917908 282.911499,342.361908 295.197418,352.701996   C305.172455,361.097198 312.906281,371.110413 319.941956,381.832245   C322.836517,386.243378 326.171722,390.452148 327.472076,395.753540   C327.851868,397.301910 328.989288,398.820709 327.054810,400.569702   C324.115967,398.919373 323.693024,395.486084 321.980591,393.034668   C313.136536,380.373993 301.256348,371.074860 288.562225,362.701996   C279.797821,356.921051 270.245056,352.583527 260.887482,347.864288   C248.933212,341.835449 238.222382,334.084930 230.809692,320.741760   C229.408127,329.930115 229.386551,337.212128 233.907547,344.065399   C238.418411,350.903351 244.240601,356.089661 251.466354,359.886108   C260.492310,364.628296 268.164673,371.388885 276.549194,377.092285   C278.017609,378.091187 279.563568,379.270782 279.181427,381.742950   C276.324768,382.980042 274.559296,380.335541 272.634460,379.367065   C263.818329,374.931274 254.391556,372.364410 244.986389,369.781036   C233.474503,366.619049 224.286636,360.191345 216.405060,350.144012   C216.683731,365.820465 230.726791,375.099640 231.684357,389.571777   C226.019470,382.542999 219.253021,376.708923 213.506683,369.477295  z"/>
<path fill="#f5f2f2" opacity="1.000000" stroke="none" d=" M297.757568,216.293823   C296.023132,215.357376 293.916382,214.990265 294.210236,212.871384   C294.489899,210.855042 296.613190,210.787323 298.121063,210.310745   C306.319550,207.719666 315.662598,211.329926 319.070892,219.428833   C321.981598,226.345428 326.976135,229.685867 333.682098,231.684601   C339.569000,233.439194 345.342438,235.574997 351.163879,237.548645   C365.055695,242.258377 374.059479,251.842621 379.065582,265.453033   C380.156860,268.419830 381.395386,271.334717 382.636230,274.243622   C383.915955,277.243561 382.778351,279.171173 379.901520,280.022888   C364.744080,284.510315 349.413452,286.003387 334.714294,279.099823   C328.644989,276.249329 323.116119,273.505219 316.140747,273.065521   C307.775208,272.538208 299.798676,269.311401 291.532440,265.191162   C292.191223,269.961548 295.630707,271.231812 298.153046,272.906281   C301.797607,275.325745 301.948120,277.399109 298.278900,279.446808   C290.748169,283.649475 285.617615,290.285248 281.058929,297.157501   C275.114075,306.119324 274.311890,316.419556 275.856049,326.895752   C276.069489,328.343994 276.977966,329.717987 275.248413,331.504242   C271.276978,330.241577 268.508423,327.188843 266.425537,323.707489   C255.702469,305.785217 252.901764,287.540192 264.261871,268.628601   C269.306854,260.230072 273.941162,251.575989 278.527161,242.913620   C281.834991,236.665466 282.804810,229.940857 280.537506,223.128159   C279.025879,218.586044 280.862732,217.490494 284.965820,217.626404   C295.710022,217.982315 304.502960,222.850967 312.091370,229.869293   C315.410675,232.939224 318.295319,235.184921 323.118835,236.144028   C330.172974,237.546631 336.809937,241.047852 343.624420,243.655243   C344.211914,243.880035 344.797668,244.109436 346.610596,244.811798   C341.086914,239.489761 334.965271,238.454956 329.351166,236.437088   C327.167816,235.652344 324.988281,234.833420 322.799683,234.095810   C317.389282,232.272400 313.385132,229.115768 310.031860,224.393280   C307.238251,220.459045 302.395477,218.637375 297.757568,216.293823  z"/>
<path fill="#f5f2f2" opacity="1.000000" stroke="none" d=" M262.472504,151.323715   C254.908585,130.850784 247.374268,110.773010 240.126862,90.592201   C235.073975,76.522209 230.075546,62.437920 224.191299,48.025681   C220.089142,54.426586 216.131653,60.498325 210.339081,64.997551   C197.431458,75.023224 182.350586,79.330269 166.488449,81.277435   C151.234787,83.149902 136.268814,85.655716 123.230209,94.651924   C116.892776,99.024559 111.970230,104.413361 109.586411,111.884270   C107.986565,116.898178 105.669548,117.777924 101.665787,114.674881   C98.996338,112.605988 96.193214,110.904800 93.023285,109.779655   C89.183151,108.416611 88.056885,106.470573 89.865730,102.202057   C94.342949,91.636658 102.819580,85.182671 111.871231,79.156387   C124.480171,70.761780 139.104462,70.475510 153.412048,68.675575   C170.181335,66.565964 187.165115,65.045280 202.801620,57.893318   C212.053436,53.661640 218.055344,46.443771 220.269821,36.277229   C220.809158,33.801147 219.825867,32.134537 218.383362,30.417574   C217.347809,29.184975 215.448792,28.770012 214.957901,26.664232   C217.815826,24.138947 220.293243,25.789427 222.160110,27.785835   C225.092667,30.921839 226.516953,34.872276 225.811111,39.216042   C225.444733,41.470863 225.624435,43.395226 226.654678,45.453522   C232.009338,56.151440 235.223724,67.690903 239.611664,78.747589   C244.764038,91.730492 248.709305,105.109673 253.835205,118.078300   C258.290192,129.349503 262.693298,140.645630 266.831116,152.035461   C268.318420,156.129379 270.691803,157.585373 274.976501,157.728104   C287.088867,158.131531 295.483063,165.085983 299.886200,175.525345   C304.424072,186.284195 302.979065,197.127777 294.169159,205.904999   C290.366852,209.693176 285.470734,211.875793 280.539642,214.554886   C276.911133,209.321518 274.067688,203.612488 269.002563,199.692383   C261.658356,194.008453 253.611511,190.536942 244.071274,191.750793   C242.410873,191.962051 240.606140,192.343445 239.411942,190.838760   C238.016556,189.080612 239.021378,187.280502 239.988602,185.747192   C242.797409,181.294373 244.080093,176.421814 244.938965,171.261322   C245.910339,165.424789 249.368713,161.396652 255.276520,159.634537   C258.237366,158.751404 261.568207,158.998627 264.454987,156.862518   C263.818207,155.057755 263.221405,153.366318 262.472504,151.323715  z"/>
<path fill="#f5f2f2" opacity="1.000000" stroke="none" d=" M186.168274,160.966309   C167.702866,150.981522 149.941589,140.514542 132.173294,130.056580   C126.736786,126.856773 121.096214,124.004524 115.564651,120.964806   C113.978752,120.093330 111.666199,119.070633 112.620033,117.030815   C113.914040,114.263519 116.162178,116.336960 117.691551,117.160210   C145.061111,131.893051 172.482437,146.534958 199.666489,161.604355   C209.397888,166.998947 218.924728,172.739883 228.993179,177.522079   C231.668655,178.792831 234.074020,180.655701 236.532364,182.349777   C237.666672,183.131424 238.561951,184.229507 237.637131,185.723251   C236.850754,186.993362 235.532410,187.531708 234.176895,187.087402   C232.295425,186.470718 230.490524,185.591095 228.703568,184.720001   C214.195038,177.647598 200.393036,169.307938 186.168274,160.966309  z"/>
<path fill="#f5f2f2" opacity="1.000000" stroke="none" d=" M75.157356,91.652786   C78.655350,92.896873 81.751785,94.101006 84.878998,95.219048   C86.990471,95.973953 89.303925,96.827522 89.035332,99.450600   C88.753342,102.204475 88.219040,105.193275 85.438324,106.781662   C82.715454,108.337013 81.222717,106.088142 79.464851,104.623260   C74.870071,100.794327 70.209740,97.044106 65.611336,93.219482   C64.257988,92.093864 62.378159,91.393143 61.987316,88.633461   C66.886513,87.027550 70.504158,91.083565 75.157356,91.652786  z"/>
</svg>